<svg width="36" height="36" viewBox="0 0 36 36" fill="none" xmlns="http://www.w3.org/2000/svg">
<path fill-rule="evenodd" clip-rule="evenodd" d="M30.8074 5.19518C28.0902 2.47794 25.1875 4.23672 23.3711 6.05314L14.7907 14.6335L6.21008 23.2141C4.39366 25.0308 2.49192 27.7903 5.35193 30.6505C8.21213 33.5107 10.9718 31.6089 12.7883 29.7925L21.3689 21.2119L29.9494 12.6315C31.7659 10.8149 33.5245 7.91223 30.8074 5.19518Z" fill="#FF5C57"/>
<path fill-rule="evenodd" clip-rule="evenodd" d="M14.4107 4.49158L18.0449 8.12539L21.7432 4.42663C21.995 4.1751 22.2492 3.94106 22.5059 3.72105C22.1189 1.76685 21.0036 0 18.0431 0C15.0767 0 13.9626 1.77357 13.5779 3.73238C13.8542 3.97161 14.1309 4.2118 14.4107 4.49158Z" fill="#FF5C57"/>
<mask id="mask0" mask-type="alpha" maskUnits="userSpaceOnUse" x="13" y="27" width="10" height="9">
<path fill-rule="evenodd" clip-rule="evenodd" d="M13.5906 27.7868H22.5017V36H13.5906V27.7868Z" fill="white"/>
</mask>
<g mask="url(#mask0)">
<path fill-rule="evenodd" clip-rule="evenodd" d="M21.7423 31.4834L18.0458 27.7868L14.4141 31.4185C14.1382 31.6942 13.864 31.9463 13.5906 32.1833C14.007 34.1751 15.1856 36 18.0441 36C20.9106 36 22.0878 34.1655 22.5017 32.1673C22.2473 31.9485 21.9929 31.7338 21.7423 31.4834Z" fill="#FF5C57"/>
</g>
<path fill-rule="evenodd" clip-rule="evenodd" d="M4.58362 21.5879L12.8706 13.3009H5.86528C3.29619 13.3009 0 14.1099 0 17.9524C0 20.8195 1.83506 21.9968 3.83403 22.4101C4.07096 22.1371 4.3075 21.864 4.58362 21.5879Z" fill="#FF5C57"/>
<path fill-rule="evenodd" clip-rule="evenodd" d="M32.2678 13.4873C32.0462 13.745 31.8283 14.0032 31.5747 14.2571L23.2275 22.604H30.1337C32.7026 22.604 35.9988 21.9972 35.9988 17.9524C35.9988 14.9867 34.226 13.8724 32.2678 13.4873Z" fill="#FF5C57"/>
<path fill-rule="evenodd" clip-rule="evenodd" d="M5.8657 11.0009H15.1663L16.418 9.74919L12.7865 6.11769C10.9701 4.30107 8.21016 2.39933 5.35015 5.25953C3.25299 7.35669 3.71877 9.39793 4.83095 11.0549C5.16991 11.0293 5.50675 11.0009 5.8657 11.0009Z" fill="#FF5C57"/>
<path fill-rule="evenodd" clip-rule="evenodd" d="M30.1341 24.9028L20.924 24.903L19.6694 26.1578L23.3684 29.8565C25.1848 31.6731 28.0877 33.4319 30.8047 30.7147C32.8321 28.6873 32.3667 26.5571 31.2459 24.8515C30.8854 24.8772 30.5247 24.9028 30.1341 24.9028Z" fill="#FF5C57"/>
</svg>
